<svg width="40" height="40" viewBox="0 0 40 40" fill="none" xmlns="http://www.w3.org/2000/svg">
<path d="M20 11.6667C17.7899 11.6667 15.6703 12.5447 14.1075 14.1075C12.5447 15.6703 11.6667 17.7899 11.6667 20C11.6667 22.2102 12.5447 24.3298 14.1075 25.8926C15.6703 27.4554 17.7899 28.3334 20 28.3334C22.2102 28.3334 24.3298 27.4554 25.8926 25.8926C27.4554 24.3298 28.3334 22.2102 28.3334 20C28.3334 17.7899 27.4554 15.6703 25.8926 14.1075C24.3298 12.5447 22.2102 11.6667 20 11.6667Z" fill="#383838"/>
<path fill-rule="evenodd" clip-rule="evenodd" d="M20 1.66669C20.442 1.66669 20.866 1.84228 21.1785 2.15484C21.4911 2.4674 21.6667 2.89133 21.6667 3.33335V5.00002C21.6667 5.44205 21.4911 5.86597 21.1785 6.17853C20.866 6.49109 20.442 6.66669 20 6.66669C19.558 6.66669 19.1341 6.49109 18.8215 6.17853C18.5089 5.86597 18.3334 5.44205 18.3334 5.00002V3.33335C18.3334 2.89133 18.5089 2.4674 18.8215 2.15484C19.1341 1.84228 19.558 1.66669 20 1.66669ZM5.48835 5.48835C5.8009 5.1759 6.22475 5.00038 6.66669 5.00038C7.10863 5.00038 7.53247 5.1759 7.84502 5.48835L10.345 7.98835C10.6486 8.30269 10.8166 8.72369 10.8128 9.16069C10.809 9.59768 10.6337 10.0157 10.3247 10.3247C10.0157 10.6337 9.59768 10.809 9.16069 10.8128C8.72369 10.8166 8.30269 10.6486 7.98835 10.345L5.48835 7.84502C5.1759 7.53247 5.00038 7.10863 5.00038 6.66669C5.00038 6.22475 5.1759 5.8009 5.48835 5.48835ZM34.5117 5.48835C34.8241 5.8009 34.9997 6.22475 34.9997 6.66669C34.9997 7.10863 34.8241 7.53247 34.5117 7.84502L32.0117 10.345C31.8579 10.5042 31.674 10.6312 31.4707 10.7185C31.2674 10.8059 31.0487 10.8518 30.8274 10.8538C30.6061 10.8557 30.3866 10.8135 30.1818 10.7297C29.9769 10.6459 29.7908 10.5222 29.6344 10.3657C29.4779 10.2092 29.3541 10.0231 29.2703 9.81828C29.1865 9.61345 29.1443 9.39398 29.1463 9.17268C29.1482 8.95139 29.1942 8.73269 29.2815 8.52935C29.3689 8.32601 29.4958 8.1421 29.655 7.98835L32.155 5.48835C32.4676 5.1759 32.8914 5.00038 33.3334 5.00038C33.7753 5.00038 34.1991 5.1759 34.5117 5.48835ZM1.66669 20C1.66669 19.558 1.84228 19.1341 2.15484 18.8215C2.4674 18.5089 2.89133 18.3334 3.33335 18.3334H5.00002C5.44205 18.3334 5.86597 18.5089 6.17853 18.8215C6.49109 19.1341 6.66669 19.558 6.66669 20C6.66669 20.442 6.49109 20.866 6.17853 21.1785C5.86597 21.4911 5.44205 21.6667 5.00002 21.6667H3.33335C2.89133 21.6667 2.4674 21.4911 2.15484 21.1785C1.84228 20.866 1.66669 20.442 1.66669 20ZM33.3334 20C33.3334 19.558 33.5089 19.1341 33.8215 18.8215C34.1341 18.5089 34.558 18.3334 35 18.3334H36.6667C37.1087 18.3334 37.5326 18.5089 37.8452 18.8215C38.1578 19.1341 38.3334 19.558 38.3334 20C38.3334 20.442 38.1578 20.866 37.8452 21.1785C37.5326 21.4911 37.1087 21.6667 36.6667 21.6667H35C34.558 21.6667 34.1341 21.4911 33.8215 21.1785C33.5089 20.866 33.3334 20.442 33.3334 20ZM10.345 29.655C10.6575 29.9676 10.833 30.3914 10.833 30.8334C10.833 31.2753 10.6575 31.6991 10.345 32.0117L7.84502 34.5117C7.53068 34.8153 7.10968 34.9833 6.67268 34.9795C6.23569 34.9757 5.81767 34.8004 5.50866 34.4914C5.19964 34.1824 5.02436 33.7643 5.02056 33.3274C5.01677 32.8904 5.18476 32.4694 5.48835 32.155L7.98835 29.655C8.3009 29.3426 8.72475 29.167 9.16669 29.167C9.60863 29.167 10.0325 29.3426 10.345 29.655ZM29.655 29.655C29.9676 29.3426 30.3914 29.167 30.8334 29.167C31.2753 29.167 31.6991 29.3426 32.0117 29.655L34.5117 32.155C34.8153 32.4694 34.9833 32.8904 34.9795 33.3274C34.9757 33.7643 34.8004 34.1824 34.4914 34.4914C34.1824 34.8004 33.7643 34.9757 33.3274 34.9795C32.8904 34.9833 32.4694 34.8153 32.155 34.5117L29.655 32.0117C29.3426 31.6991 29.167 31.2753 29.167 30.8334C29.167 30.3914 29.3426 29.9676 29.655 29.655ZM20 33.3334C20.442 33.3334 20.866 33.5089 21.1785 33.8215C21.4911 34.1341 21.6667 34.558 21.6667 35V36.6667C21.6667 37.1087 21.4911 37.5326 21.1785 37.8452C20.866 38.1578 20.442 38.3334 20 38.3334C19.558 38.3334 19.1341 38.1578 18.8215 37.8452C18.5089 37.5326 18.3334 37.1087 18.3334 36.6667V35C18.3334 34.558 18.5089 34.1341 18.8215 33.8215C19.1341 33.5089 19.558 33.3334 20 33.3334Z" fill="#383838"/>
</svg>
